<?xml version="1.0" encoding="UTF-8"?>
<svg width="308px" height="161px" viewBox="0 0 308 161" version="1.1" xmlns="http://www.w3.org/2000/svg" xmlns:xlink="http://www.w3.org/1999/xlink">
    <title>Group 7</title>
    <g id="Page-1" stroke="none" stroke-width="1" fill="none" fill-rule="evenodd">
        <g id="Desktop-HD" transform="translate(-315.000000, -895.000000)" fill="#F4F4F4">
            <g id="Group-7" transform="translate(315.000000, 895.000000)">
                <g id="Group-8">
                    <ellipse id="Oval-Copy" cx="143.763792" cy="4" rx="3.76379239" ry="4"></ellipse>
                    <ellipse id="Oval-Copy-4" cx="123.763792" cy="4" rx="3.76379239" ry="4"></ellipse>
                    <ellipse id="Oval-Copy" cx="103.763792" cy="4" rx="3.76379239" ry="4"></ellipse>
                    <ellipse id="Oval-Copy-4" cx="83.7637924" cy="4" rx="3.76379239" ry="4"></ellipse>
                    <ellipse id="Oval-Copy" cx="63.7637924" cy="4" rx="3.76379239" ry="4"></ellipse>
                    <ellipse id="Oval-Copy-4" cx="43.7637924" cy="4" rx="3.76379239" ry="4"></ellipse>
                    <ellipse id="Oval-Copy" cx="23.7637924" cy="4" rx="3.76379239" ry="4"></ellipse>
                    <ellipse id="Oval-Copy-4" cx="3.76379239" cy="4" rx="3.76379239" ry="4"></ellipse>
                    <ellipse id="Oval-Copy" cx="143.763792" cy="21" rx="3.76379239" ry="4"></ellipse>
                    <ellipse id="Oval-Copy-4" cx="123.763792" cy="21" rx="3.76379239" ry="4"></ellipse>
                    <ellipse id="Oval-Copy" cx="103.763792" cy="21" rx="3.76379239" ry="4"></ellipse>
                    <ellipse id="Oval-Copy-4" cx="83.7637924" cy="21" rx="3.76379239" ry="4"></ellipse>
                    <ellipse id="Oval-Copy" cx="63.7637924" cy="21" rx="3.76379239" ry="4"></ellipse>
                    <ellipse id="Oval-Copy-4" cx="43.7637924" cy="21" rx="3.76379239" ry="4"></ellipse>
                    <ellipse id="Oval-Copy" cx="23.7637924" cy="21" rx="3.76379239" ry="4"></ellipse>
                    <ellipse id="Oval-Copy-4" cx="3.76379239" cy="21" rx="3.76379239" ry="4"></ellipse>
                    <ellipse id="Oval-Copy" cx="143.763792" cy="38" rx="3.76379239" ry="4"></ellipse>
                    <ellipse id="Oval-Copy-4" cx="123.763792" cy="38" rx="3.76379239" ry="4"></ellipse>
                    <ellipse id="Oval-Copy" cx="103.763792" cy="38" rx="3.76379239" ry="4"></ellipse>
                    <ellipse id="Oval-Copy-4" cx="83.7637924" cy="38" rx="3.76379239" ry="4"></ellipse>
                    <ellipse id="Oval-Copy" cx="63.7637924" cy="38" rx="3.76379239" ry="4"></ellipse>
                    <ellipse id="Oval-Copy-4" cx="43.7637924" cy="38" rx="3.76379239" ry="4"></ellipse>
                    <ellipse id="Oval-Copy" cx="23.7637924" cy="38" rx="3.76379239" ry="4"></ellipse>
                    <ellipse id="Oval-Copy-4" cx="3.76379239" cy="38" rx="3.76379239" ry="4"></ellipse>
                    <ellipse id="Oval-Copy" cx="143.763792" cy="55" rx="3.76379239" ry="4"></ellipse>
                    <ellipse id="Oval-Copy-4" cx="123.763792" cy="55" rx="3.76379239" ry="4"></ellipse>
                    <ellipse id="Oval-Copy" cx="103.763792" cy="55" rx="3.76379239" ry="4"></ellipse>
                    <ellipse id="Oval-Copy-4" cx="83.7637924" cy="55" rx="3.76379239" ry="4"></ellipse>
                    <ellipse id="Oval-Copy" cx="63.7637924" cy="55" rx="3.76379239" ry="4"></ellipse>
                    <ellipse id="Oval-Copy-4" cx="43.7637924" cy="55" rx="3.76379239" ry="4"></ellipse>
                    <ellipse id="Oval-Copy" cx="23.7637924" cy="55" rx="3.76379239" ry="4"></ellipse>
                    <ellipse id="Oval-Copy-4" cx="3.76379239" cy="55" rx="3.76379239" ry="4"></ellipse>
                    <ellipse id="Oval-Copy" cx="143.763792" cy="72" rx="3.76379239" ry="4"></ellipse>
                    <ellipse id="Oval-Copy-4" cx="123.763792" cy="72" rx="3.76379239" ry="4"></ellipse>
                    <ellipse id="Oval-Copy" cx="103.763792" cy="72" rx="3.76379239" ry="4"></ellipse>
                    <ellipse id="Oval-Copy-4" cx="83.7637924" cy="72" rx="3.76379239" ry="4"></ellipse>
                    <ellipse id="Oval-Copy" cx="63.7637924" cy="72" rx="3.76379239" ry="4"></ellipse>
                    <ellipse id="Oval-Copy-4" cx="43.7637924" cy="72" rx="3.76379239" ry="4"></ellipse>
                    <ellipse id="Oval-Copy" cx="23.7637924" cy="72" rx="3.76379239" ry="4"></ellipse>
                    <ellipse id="Oval-Copy-4" cx="3.76379239" cy="72" rx="3.76379239" ry="4"></ellipse>
                </g>
                <g id="Group-8" transform="translate(160.000000, 0.000000)">
                    <ellipse id="Oval-Copy" cx="143.763792" cy="4" rx="3.76379239" ry="4"></ellipse>
                    <ellipse id="Oval-Copy-4" cx="123.763792" cy="4" rx="3.76379239" ry="4"></ellipse>
                    <ellipse id="Oval-Copy" cx="103.763792" cy="4" rx="3.76379239" ry="4"></ellipse>
                    <ellipse id="Oval-Copy-4" cx="83.7637924" cy="4" rx="3.76379239" ry="4"></ellipse>
                    <ellipse id="Oval-Copy" cx="63.7637924" cy="4" rx="3.76379239" ry="4"></ellipse>
                    <ellipse id="Oval-Copy-4" cx="43.7637924" cy="4" rx="3.76379239" ry="4"></ellipse>
                    <ellipse id="Oval-Copy" cx="23.7637924" cy="4" rx="3.76379239" ry="4"></ellipse>
                    <ellipse id="Oval-Copy-4" cx="3.76379239" cy="4" rx="3.76379239" ry="4"></ellipse>
                    <ellipse id="Oval-Copy" cx="143.763792" cy="21" rx="3.76379239" ry="4"></ellipse>
                    <ellipse id="Oval-Copy-4" cx="123.763792" cy="21" rx="3.76379239" ry="4"></ellipse>
                    <ellipse id="Oval-Copy" cx="103.763792" cy="21" rx="3.76379239" ry="4"></ellipse>
                    <ellipse id="Oval-Copy-4" cx="83.7637924" cy="21" rx="3.76379239" ry="4"></ellipse>
                    <ellipse id="Oval-Copy" cx="63.7637924" cy="21" rx="3.76379239" ry="4"></ellipse>
                    <ellipse id="Oval-Copy-4" cx="43.7637924" cy="21" rx="3.76379239" ry="4"></ellipse>
                    <ellipse id="Oval-Copy" cx="23.7637924" cy="21" rx="3.76379239" ry="4"></ellipse>
                    <ellipse id="Oval-Copy-4" cx="3.76379239" cy="21" rx="3.76379239" ry="4"></ellipse>
                    <ellipse id="Oval-Copy" cx="143.763792" cy="38" rx="3.76379239" ry="4"></ellipse>
                    <ellipse id="Oval-Copy-4" cx="123.763792" cy="38" rx="3.76379239" ry="4"></ellipse>
                    <ellipse id="Oval-Copy" cx="103.763792" cy="38" rx="3.76379239" ry="4"></ellipse>
                    <ellipse id="Oval-Copy-4" cx="83.7637924" cy="38" rx="3.76379239" ry="4"></ellipse>
                    <ellipse id="Oval-Copy" cx="63.7637924" cy="38" rx="3.76379239" ry="4"></ellipse>
                    <ellipse id="Oval-Copy-4" cx="43.7637924" cy="38" rx="3.76379239" ry="4"></ellipse>
                    <ellipse id="Oval-Copy" cx="23.7637924" cy="38" rx="3.76379239" ry="4"></ellipse>
                    <ellipse id="Oval-Copy-4" cx="3.76379239" cy="38" rx="3.76379239" ry="4"></ellipse>
                    <ellipse id="Oval-Copy" cx="143.763792" cy="55" rx="3.76379239" ry="4"></ellipse>
                    <ellipse id="Oval-Copy-4" cx="123.763792" cy="55" rx="3.76379239" ry="4"></ellipse>
                    <ellipse id="Oval-Copy" cx="103.763792" cy="55" rx="3.76379239" ry="4"></ellipse>
                    <ellipse id="Oval-Copy-4" cx="83.7637924" cy="55" rx="3.76379239" ry="4"></ellipse>
                    <ellipse id="Oval-Copy" cx="63.7637924" cy="55" rx="3.76379239" ry="4"></ellipse>
                    <ellipse id="Oval-Copy-4" cx="43.7637924" cy="55" rx="3.76379239" ry="4"></ellipse>
                    <ellipse id="Oval-Copy" cx="23.7637924" cy="55" rx="3.76379239" ry="4"></ellipse>
                    <ellipse id="Oval-Copy-4" cx="3.76379239" cy="55" rx="3.76379239" ry="4"></ellipse>
                    <ellipse id="Oval-Copy" cx="143.763792" cy="72" rx="3.76379239" ry="4"></ellipse>
                    <ellipse id="Oval-Copy-4" cx="123.763792" cy="72" rx="3.76379239" ry="4"></ellipse>
                    <ellipse id="Oval-Copy" cx="103.763792" cy="72" rx="3.76379239" ry="4"></ellipse>
                    <ellipse id="Oval-Copy-4" cx="83.7637924" cy="72" rx="3.76379239" ry="4"></ellipse>
                    <ellipse id="Oval-Copy" cx="63.7637924" cy="72" rx="3.76379239" ry="4"></ellipse>
                    <ellipse id="Oval-Copy-4" cx="43.7637924" cy="72" rx="3.76379239" ry="4"></ellipse>
                    <ellipse id="Oval-Copy" cx="23.7637924" cy="72" rx="3.76379239" ry="4"></ellipse>
                    <ellipse id="Oval-Copy-4" cx="3.76379239" cy="72" rx="3.76379239" ry="4"></ellipse>
                </g>
                <g id="Group-8" transform="translate(0.000000, 85.000000)">
                    <ellipse id="Oval-Copy" cx="143.763792" cy="4" rx="3.76379239" ry="4"></ellipse>
                    <ellipse id="Oval-Copy-4" cx="123.763792" cy="4" rx="3.76379239" ry="4"></ellipse>
                    <ellipse id="Oval-Copy" cx="103.763792" cy="4" rx="3.76379239" ry="4"></ellipse>
                    <ellipse id="Oval-Copy-4" cx="83.7637924" cy="4" rx="3.76379239" ry="4"></ellipse>
                    <ellipse id="Oval-Copy" cx="63.7637924" cy="4" rx="3.76379239" ry="4"></ellipse>
                    <ellipse id="Oval-Copy-4" cx="43.7637924" cy="4" rx="3.76379239" ry="4"></ellipse>
                    <ellipse id="Oval-Copy" cx="23.7637924" cy="4" rx="3.76379239" ry="4"></ellipse>
                    <ellipse id="Oval-Copy-4" cx="3.76379239" cy="4" rx="3.76379239" ry="4"></ellipse>
                    <ellipse id="Oval-Copy" cx="143.763792" cy="21" rx="3.76379239" ry="4"></ellipse>
                    <ellipse id="Oval-Copy-4" cx="123.763792" cy="21" rx="3.76379239" ry="4"></ellipse>
                    <ellipse id="Oval-Copy" cx="103.763792" cy="21" rx="3.76379239" ry="4"></ellipse>
                    <ellipse id="Oval-Copy-4" cx="83.7637924" cy="21" rx="3.76379239" ry="4"></ellipse>
                    <ellipse id="Oval-Copy" cx="63.7637924" cy="21" rx="3.76379239" ry="4"></ellipse>
                    <ellipse id="Oval-Copy-4" cx="43.7637924" cy="21" rx="3.76379239" ry="4"></ellipse>
                    <ellipse id="Oval-Copy" cx="23.7637924" cy="21" rx="3.76379239" ry="4"></ellipse>
                    <ellipse id="Oval-Copy-4" cx="3.76379239" cy="21" rx="3.76379239" ry="4"></ellipse>
                    <ellipse id="Oval-Copy" cx="143.763792" cy="38" rx="3.76379239" ry="4"></ellipse>
                    <ellipse id="Oval-Copy-4" cx="123.763792" cy="38" rx="3.76379239" ry="4"></ellipse>
                    <ellipse id="Oval-Copy" cx="103.763792" cy="38" rx="3.76379239" ry="4"></ellipse>
                    <ellipse id="Oval-Copy-4" cx="83.7637924" cy="38" rx="3.76379239" ry="4"></ellipse>
                    <ellipse id="Oval-Copy" cx="63.7637924" cy="38" rx="3.76379239" ry="4"></ellipse>
                    <ellipse id="Oval-Copy-4" cx="43.7637924" cy="38" rx="3.76379239" ry="4"></ellipse>
                    <ellipse id="Oval-Copy" cx="23.7637924" cy="38" rx="3.76379239" ry="4"></ellipse>
                    <ellipse id="Oval-Copy-4" cx="3.76379239" cy="38" rx="3.76379239" ry="4"></ellipse>
                    <ellipse id="Oval-Copy" cx="143.763792" cy="55" rx="3.76379239" ry="4"></ellipse>
                    <ellipse id="Oval-Copy-4" cx="123.763792" cy="55" rx="3.76379239" ry="4"></ellipse>
                    <ellipse id="Oval-Copy" cx="103.763792" cy="55" rx="3.76379239" ry="4"></ellipse>
                    <ellipse id="Oval-Copy-4" cx="83.7637924" cy="55" rx="3.76379239" ry="4"></ellipse>
                    <ellipse id="Oval-Copy" cx="63.7637924" cy="55" rx="3.76379239" ry="4"></ellipse>
                    <ellipse id="Oval-Copy-4" cx="43.7637924" cy="55" rx="3.76379239" ry="4"></ellipse>
                    <ellipse id="Oval-Copy" cx="23.7637924" cy="55" rx="3.76379239" ry="4"></ellipse>
                    <ellipse id="Oval-Copy-4" cx="3.76379239" cy="55" rx="3.76379239" ry="4"></ellipse>
                    <ellipse id="Oval-Copy" cx="143.763792" cy="72" rx="3.76379239" ry="4"></ellipse>
                    <ellipse id="Oval-Copy-4" cx="123.763792" cy="72" rx="3.76379239" ry="4"></ellipse>
                    <ellipse id="Oval-Copy" cx="103.763792" cy="72" rx="3.76379239" ry="4"></ellipse>
                    <ellipse id="Oval-Copy-4" cx="83.7637924" cy="72" rx="3.76379239" ry="4"></ellipse>
                    <ellipse id="Oval-Copy" cx="63.7637924" cy="72" rx="3.76379239" ry="4"></ellipse>
                    <ellipse id="Oval-Copy-4" cx="43.7637924" cy="72" rx="3.76379239" ry="4"></ellipse>
                    <ellipse id="Oval-Copy" cx="23.7637924" cy="72" rx="3.76379239" ry="4"></ellipse>
                    <ellipse id="Oval-Copy-4" cx="3.76379239" cy="72" rx="3.76379239" ry="4"></ellipse>
                </g>
                <g id="Group-8" transform="translate(160.000000, 85.000000)">
                    <ellipse id="Oval-Copy" cx="143.763792" cy="4" rx="3.76379239" ry="4"></ellipse>
                    <ellipse id="Oval-Copy-4" cx="123.763792" cy="4" rx="3.76379239" ry="4"></ellipse>
                    <ellipse id="Oval-Copy" cx="103.763792" cy="4" rx="3.76379239" ry="4"></ellipse>
                    <ellipse id="Oval-Copy-4" cx="83.7637924" cy="4" rx="3.76379239" ry="4"></ellipse>
                    <ellipse id="Oval-Copy" cx="63.7637924" cy="4" rx="3.76379239" ry="4"></ellipse>
                    <ellipse id="Oval-Copy-4" cx="43.7637924" cy="4" rx="3.76379239" ry="4"></ellipse>
                    <ellipse id="Oval-Copy" cx="23.7637924" cy="4" rx="3.76379239" ry="4"></ellipse>
                    <ellipse id="Oval-Copy-4" cx="3.76379239" cy="4" rx="3.76379239" ry="4"></ellipse>
                    <ellipse id="Oval-Copy" cx="143.763792" cy="21" rx="3.76379239" ry="4"></ellipse>
                    <ellipse id="Oval-Copy-4" cx="123.763792" cy="21" rx="3.76379239" ry="4"></ellipse>
                    <ellipse id="Oval-Copy" cx="103.763792" cy="21" rx="3.76379239" ry="4"></ellipse>
                    <ellipse id="Oval-Copy-4" cx="83.7637924" cy="21" rx="3.76379239" ry="4"></ellipse>
                    <ellipse id="Oval-Copy" cx="63.7637924" cy="21" rx="3.76379239" ry="4"></ellipse>
                    <ellipse id="Oval-Copy-4" cx="43.7637924" cy="21" rx="3.76379239" ry="4"></ellipse>
                    <ellipse id="Oval-Copy" cx="23.7637924" cy="21" rx="3.76379239" ry="4"></ellipse>
                    <ellipse id="Oval-Copy-4" cx="3.76379239" cy="21" rx="3.76379239" ry="4"></ellipse>
                    <ellipse id="Oval-Copy" cx="143.763792" cy="38" rx="3.76379239" ry="4"></ellipse>
                    <ellipse id="Oval-Copy-4" cx="123.763792" cy="38" rx="3.76379239" ry="4"></ellipse>
                    <ellipse id="Oval-Copy" cx="103.763792" cy="38" rx="3.76379239" ry="4"></ellipse>
                    <ellipse id="Oval-Copy-4" cx="83.7637924" cy="38" rx="3.76379239" ry="4"></ellipse>
                    <ellipse id="Oval-Copy" cx="63.7637924" cy="38" rx="3.76379239" ry="4"></ellipse>
                    <ellipse id="Oval-Copy-4" cx="43.7637924" cy="38" rx="3.76379239" ry="4"></ellipse>
                    <ellipse id="Oval-Copy" cx="23.7637924" cy="38" rx="3.76379239" ry="4"></ellipse>
                    <ellipse id="Oval-Copy-4" cx="3.76379239" cy="38" rx="3.76379239" ry="4"></ellipse>
                    <ellipse id="Oval-Copy" cx="143.763792" cy="55" rx="3.76379239" ry="4"></ellipse>
                    <ellipse id="Oval-Copy-4" cx="123.763792" cy="55" rx="3.76379239" ry="4"></ellipse>
                    <ellipse id="Oval-Copy" cx="103.763792" cy="55" rx="3.76379239" ry="4"></ellipse>
                    <ellipse id="Oval-Copy-4" cx="83.7637924" cy="55" rx="3.76379239" ry="4"></ellipse>
                    <ellipse id="Oval-Copy" cx="63.7637924" cy="55" rx="3.76379239" ry="4"></ellipse>
                    <ellipse id="Oval-Copy-4" cx="43.7637924" cy="55" rx="3.76379239" ry="4"></ellipse>
                    <ellipse id="Oval-Copy" cx="23.7637924" cy="55" rx="3.76379239" ry="4"></ellipse>
                    <ellipse id="Oval-Copy-4" cx="3.76379239" cy="55" rx="3.76379239" ry="4"></ellipse>
                    <ellipse id="Oval-Copy" cx="143.763792" cy="72" rx="3.76379239" ry="4"></ellipse>
                    <ellipse id="Oval-Copy-4" cx="123.763792" cy="72" rx="3.76379239" ry="4"></ellipse>
                    <ellipse id="Oval-Copy" cx="103.763792" cy="72" rx="3.76379239" ry="4"></ellipse>
                    <ellipse id="Oval-Copy-4" cx="83.7637924" cy="72" rx="3.76379239" ry="4"></ellipse>
                    <ellipse id="Oval-Copy" cx="63.7637924" cy="72" rx="3.76379239" ry="4"></ellipse>
                    <ellipse id="Oval-Copy-4" cx="43.7637924" cy="72" rx="3.76379239" ry="4"></ellipse>
                    <ellipse id="Oval-Copy" cx="23.7637924" cy="72" rx="3.76379239" ry="4"></ellipse>
                    <ellipse id="Oval-Copy-4" cx="3.76379239" cy="72" rx="3.76379239" ry="4"></ellipse>
                </g>
            </g>
        </g>
    </g>
</svg>