<svg id="Layer_1" data-name="Layer 1" xmlns="http://www.w3.org/2000/svg" viewBox="0 0 379 112"><defs><style>.cls-1{fill:none;}.cls-2{fill:#050607;}.cls-3{fill:#010102;}.cls-4{fill:#bf6fa4;}.cls-5{fill:#040506;}.cls-6{fill:#050708;}.cls-7{fill:#050608;}.cls-8{fill:#060809;}.cls-9{fill:#040607;}.cls-10{fill:#684391;}.cls-11{fill:#a6609d;}.cls-12{fill:#694391;}.cls-13{fill:#060709;}.cls-14{fill:#090a0c;}.cls-15{fill:#2c3481;}.cls-16{fill:#3b3487;}.cls-17{fill:#a05d9d;}.cls-18{fill:#0e0e10;}.cls-19{fill:#9f5c9c;}.cls-20{fill:#48398b;}.cls-21{fill:#e9e8e9;}.cls-22{fill:#f9f9f9;}.cls-23{fill:#cbc9c9;}.cls-24{fill:#7b4c96;}.cls-25{fill:#a6a3a3;}.cls-26{fill:#fefefe;}.cls-27{fill:#4f4d4c;}.cls-28{fill:#96599b;}.cls-29{fill:#fbfbfb;}.cls-30{fill:#8a5197;}.cls-31{fill:#fdfdfd;}.cls-32{fill:#804d96;}.cls-33{fill:#7e7b7b;}.cls-34{fill:#817e7e;}.cls-35{fill:#874f96;}.cls-36{fill:#9b5c9b;}.cls-37{fill:#3c3488;}.cls-38{fill:#905599;}.cls-39{fill:#eae9ea;}.cls-40{fill:#925598;}</style></defs><g id="snxKYs.tif"><path class="cls-1" d="M206,362.17v-112H585v112Zm249.42-85.4h1.94l4,.06,1.07.11h20.95c2.14,1.85,4.43.88,7.24.6-.35-5.57-.68-10.85-1-16.05l-4.24-1.43h-3l-3-1-6-1-7-1-6.05-.89a31.42,31.42,0,0,0-4.57-.86,13.21,13.21,0,0,0-3.32.66l-3.06-.73a24.73,24.73,0,0,0-3-.45c-7.11-.33-14.22-.78-21.33-.86-11.71-.15-23.43,0-36,0,3.78,4.36,5.79,8.66,6.06,13.54s-2.17,9.2-4.77,13.81c8.57-1,16.4-2.22,24.28-2.87,9.23-.76,18.49-1.1,27.74-1.56,2.64-.13,5.29-.05,7.94-.07h5Zm50.91,18.16-2.06,1.76-3.72,5.1a21.3,21.3,0,0,0-3.43,10.79q-.3,6.51-.62,13v4.55l2.09,2.34H567c-.06,1.32-.1,2.11-.13,2.9-1.66,4.56-5.15,7-9.7,8.11H496.93v16.79h43.31c5.89,0,11.81.36,17.65-.14,3.81-.32,7.51-1.9,11.26-2.92,4.44-1.6,8.08-4.15,10.16-8.53a16.29,16.29,0,0,0,3.8-9.22,33.76,33.76,0,0,0,1-5.73c.08-13.86,0-27.71,0-41.57a29.28,29.28,0,0,0-.38-3.3H530.28l-12,1.05-3.05.88-2.95,1-1,.14-4.2,2.74A1.07,1.07,0,0,0,506.35,294.93Zm-54.86,17.55h37.86c-.28-3.12.5-5.89-.73-8.93H450.71c.12-1.85.2-3.27.32-5.1h39v-9.18H441.19c0,7.11-.14,13.88,0,20.65.27,10.55,7.39,17.5,18,17.64,7.63.11,15.27,0,22.91,0h8.2c-.22-3.49.41-6.53-.59-9.71H484.6c-8.3,0-16.6,0-24.91,0C456.13,317.89,453.16,317,451.49,312.48Zm-209.07,5.57H207.47v9.39c11.59,0,23,.37,34.41-.14,6.23-.28,10.81-3.94,12.42-10.36,1.09-4.34.51-8.7.55-13.12h-38c.91-4.22,3.34-5.28,6.68-5.27q13.71.06,27.41,0c1.26,0,2.51-.21,3.59-.31v-9.3c-10.94,0-21.58-.46-32.16.13-9.93.56-13.86,5.26-15,14.05-.39,3-.06,6.17-.06,9.58h38.59Zm108.17-5.11c1.9-.59,3.36-.93,4.73-1.47a12.34,12.34,0,0,0,7.87-8.35,34.39,34.39,0,0,0,.38-14H313v38.43c1.69,0,3.15,0,4.62,0s3.16-.14,5.09-.23V298.87h31.49c-.72,3.63-2.93,4.92-6.13,4.94H326.72v8.92h10.6l15.74,14.72h11.67Zm86,14.42c.83-11.09-1.67-19.83-13.6-23.23,4.3-5.27,9-9.59,13-15H423.94l-12.69,14.43H396.69V288.78c-3.56.48-6.66-.43-9.63.59v38H397V312.69c6.87,0,13.32,0,19.78,0a13.48,13.48,0,0,1,2.95.38c4.73,1.09,6.77,3.45,7,8.23.11,1.94,0,3.9,0,6Zm-60.25-76.24c-9.56-.13-16.37,6.51-16.72,15.74-.29,7.74,6.67,16.47,16.29,16.44a16.39,16.39,0,0,0,16.53-16.25C392.65,258.17,385.49,251.25,376.38,251.12ZM489.06,338.7v-7.12c-8.76,0-17.21-.13-25.66,0-6.49.13-10.8,3.78-12.51,10-.75,2.75-.54,16.38.23,19.28h37.95V342.55c-4.34.56-8.43-.49-12.37.62V350l5.32.48c-.08,1.12-.14,2-.19,2.83H457.89c1.2-4.7-1.36-9.58,3-14C469.87,338.22,479.33,339.15,489.06,338.7ZM288.37,361.21c-2.38-2.39-4.12-4.1-5.82-5.86s-3.26-3.51-5.08-5.48c8-1.78,11.58-6.85,9.9-18.09H248.24v29.16h7.82V339.07h24.21c-1,1.48-1.64,2.49-2.47,3.76H259v7.4h9.49l10.63,11Zm41-29.62c-9,0-17.65-.16-26.25.05-6.08.15-11.18,4.24-12.07,9.86-1,6.47-.49,13-.38,19.47h7.67V350.42h23.6V361h7.43Zm-21.45-32.95c-.4-3.59.47-6.65-.6-9.72-11.19,0-22.15-.09-33.12.07a21.12,21.12,0,0,0-7.2,1.55,12.17,12.17,0,0,0-7.56,13.83h7.75c2.89-6.09,4.34-6.67,13.32-5.27v28.19h9.87V298.64Zm79.37,62.51V331.81H379.7V348.9l-1.05.52c-1.16-1.39-2.23-2.87-3.5-4.15a62.77,62.77,0,0,0-14.69-10.93c-4.15-2.26-8.41-3.62-13.22-2.43v29.38c1.47,0,2.61,0,3.76,0s2.21-.15,3.61-.24c0-3.76,0-7.21,0-10.65s.1-6.69.15-10.18c8.08,2.49,12.39,6.19,24.8,20.94Zm18.19-.12h7.13V339.69c11.42,4.15,18.2,13,25,21.33h7.58v-29.1h-7.13v17.59c-1-.89-1.63-1.37-2.17-1.92a73.36,73.36,0,0,0-18.13-13.76c-3.88-2.05-7.95-3-12.32-1.9ZM244.57,331.6c-9.41,0-18.37-.21-27.31.07-6.49.2-10.19,4.66-10.12,11.54h6.21l2.52-4,7.42-.43V361h7.77V338.58h13.51Zm135.49-4.14V289.25h-9.4v38.21Zm12.82,4.28v29.31h7.24V331.74Zm-58.44,0c0,10.06,0,19.7,0,29.33h7V331.72Z" transform="translate(-206.02 -250.17)"/><path class="cls-2" d="M451.49,312.48c1.67,4.48,4.64,5.41,8.2,5.4,8.31,0,16.61,0,24.91,0h5.16c1,3.18.37,6.22.59,9.71h-8.2c-7.64,0-15.28.08-22.91,0-10.63-.14-17.75-7.09-18-17.64-.17-6.77,0-13.54,0-20.65h48.88v9.18H451c-.12,1.83-.2,3.25-.32,5.1h37.91c1.23,3,.45,5.81.73,8.93Z" transform="translate(-206.02 -250.17)"/><path class="cls-2" d="M242.42,318.05l3.45-5.35H207.28c0-3.41-.33-6.55.06-9.58,1.14-8.79,5.07-13.49,15-14.05,10.58-.59,21.22-.13,32.16-.13v9.3c-1.08.1-2.33.31-3.59.31q-13.71,0-27.41,0c-3.34,0-5.77,1.05-6.68,5.27h38c0,4.42.54,8.78-.55,13.12-1.61,6.42-6.19,10.08-12.42,10.36-11.39.51-22.82.14-34.41.14v-9.39Z" transform="translate(-206.02 -250.17)"/><path class="cls-3" d="M450.41,276.78c-2.65,0-5.3-.06-7.94.07-9.25.46-18.51.8-27.74,1.56-7.88.65-15.71,1.83-24.28,2.87,2.6-4.61,5.05-8.86,4.77-13.81s-2.28-9.18-6.06-13.54c12.54,0,24.26-.11,36,0,7.11.08,14.22.53,21.33.86a24.73,24.73,0,0,1,3,.45Q449.91,266,450.41,276.78Z" transform="translate(-206.02 -250.17)"/><path class="cls-2" d="M350.59,312.94l14.14,14.52H353.06l-15.74-14.72h-10.6v-8.92h21.36c3.2,0,5.41-1.31,6.13-4.94H322.72v28.48c-1.93.09-3.51.19-5.09.23s-2.93,0-4.62,0V289.16h50.56a34.39,34.39,0,0,1-.38,14,12.34,12.34,0,0,1-7.87,8.35C354,312,352.49,312.35,350.59,312.94Z" transform="translate(-206.02 -250.17)"/><path class="cls-4" d="M530.28,288.9h53.48a29.28,29.28,0,0,1,.38,3.3c0,13.86.06,27.71,0,41.57a33.76,33.76,0,0,1-1,5.73l-22.9-22.79,6.69-.36V305.59H546.22c-1.33-1.44-2.62-2.91-4-4.32Q536.27,295.06,530.28,288.9Z" transform="translate(-206.02 -250.17)"/><path class="cls-2" d="M436.63,327.36h-9.9c0-2.14.09-4.1,0-6-.26-4.78-2.3-7.14-7-8.23a13.48,13.48,0,0,0-2.95-.38c-6.46,0-12.91,0-19.78,0v14.67h-9.89v-38c3-1,6.07-.11,9.63-.59v14.74h14.56l12.69-14.43H436c-4,5.45-8.67,9.77-13,15C435,307.53,437.46,316.27,436.63,327.36Z" transform="translate(-206.02 -250.17)"/><path class="cls-5" d="M376.38,251.12c9.11.13,16.27,7.05,16.1,15.93A16.39,16.39,0,0,1,376,283.3c-9.62,0-16.58-8.7-16.29-16.44C360,257.63,366.82,251,376.38,251.12Z" transform="translate(-206.02 -250.17)"/><path class="cls-6" d="M489.06,338.7c-9.73.45-19.19-.48-28.15.58-4.38,4.42-1.82,9.3-3,14h23.94c.05-.84.11-1.71.19-2.83L476.7,350v-6.8c3.94-1.11,8-.06,12.37-.62v18.39H451.12c-.77-2.9-1-16.53-.23-19.28,1.71-6.26,6-9.91,12.51-10,8.45-.17,16.9,0,25.66,0Z" transform="translate(-206.02 -250.17)"/><path class="cls-7" d="M288.37,361.21h-9.3l-10.63-11H259v-7.4H277.8c.83-1.27,1.49-2.28,2.47-3.76H256.06v21.87h-7.82V331.78h39.13c1.68,11.24-1.86,16.31-9.9,18.09,1.82,2,3.42,3.75,5.08,5.48S286,358.82,288.37,361.21Z" transform="translate(-206.02 -250.17)"/><path class="cls-6" d="M329.33,331.59V361H321.9V350.42H298.3V361h-7.67c-.11-6.46-.65-13,.38-19.47.89-5.62,6-9.71,12.07-9.86C311.68,331.43,320.29,331.59,329.33,331.59ZM298.6,343h23.16l-.22-4.53c-6.21.29-12.1.56-18,.86C301.46,339.43,299.73,340.19,298.6,343Z" transform="translate(-206.02 -250.17)"/><path class="cls-7" d="M307.88,298.64H290.34v28.65h-9.87V299.1c-9-1.4-10.43-.82-13.32,5.27H259.4A12.17,12.17,0,0,1,267,290.54a21.12,21.12,0,0,1,7.2-1.55c11-.16,21.93-.07,33.12-.07C308.35,292,307.48,295.05,307.88,298.64Z" transform="translate(-206.02 -250.17)"/><path class="cls-8" d="M387.25,361.15h-7.68c-12.41-14.75-16.72-18.45-24.8-20.94,0,3.49-.12,6.83-.15,10.18s0,6.89,0,10.65c-1.4.09-2.51.2-3.61.24s-2.29,0-3.76,0V331.91c4.81-1.19,9.07.17,13.22,2.43a62.77,62.77,0,0,1,14.69,10.93c1.27,1.28,2.34,2.76,3.5,4.15l1.05-.52V331.81h7.55Z" transform="translate(-206.02 -250.17)"/><path class="cls-9" d="M405.44,361v-29.1c4.37-1.11,8.44-.15,12.32,1.9a73.36,73.36,0,0,1,18.13,13.76c.54.55,1.16,1,2.17,1.92V331.92h7.13V361h-7.58c-6.84-8.31-13.62-17.18-25-21.33V361Z" transform="translate(-206.02 -250.17)"/><path class="cls-10" d="M546.22,332.5H517.29c-3.5-3.64-6.94-7.35-10.53-10.91-3.12-3.09-6.41-6-9.62-9a21.3,21.3,0,0,1,3.43-10.79,18.6,18.6,0,0,1,3.22,2c3.15,2.93,6.18,6,8.39,8.14l2.23,4.72,16.85.09c1.32,1.46,2.62,3,4,4.38C538.88,324.91,542.56,328.7,546.22,332.5Z" transform="translate(-206.02 -250.17)"/><path class="cls-11" d="M546.22,332.5c-3.66-3.8-7.34-7.59-11-11.41-1.36-1.43-2.66-2.92-4-4.38h29l22.9,22.79a16.29,16.29,0,0,1-3.8,9.22c-.24-.76-.24-1.76-.74-2.25-3.83-3.74-7.76-7.39-11.66-11.07,0-.79.07-1.58.13-2.9Z" transform="translate(-206.02 -250.17)"/><path class="cls-12" d="M569.15,357.25c-3.75,1-7.45,2.6-11.26,2.92-5.84.5-11.76.14-17.65.14-1.19-1.35-2.34-2.73-3.58-4q-6.17-6.4-12.37-12.76h32.92c3.14,3.27,6.34,6.5,9.39,9.85A29.29,29.29,0,0,1,569.15,357.25Z" transform="translate(-206.02 -250.17)"/><path class="cls-13" d="M244.57,331.6v7H231.06V361h-7.77V338.74l-7.42.43-2.52,4h-6.21c-.07-6.88,3.63-11.34,10.12-11.54C226.2,331.39,235.16,331.6,244.57,331.6Z" transform="translate(-206.02 -250.17)"/><path class="cls-14" d="M380.06,327.46h-9.4V289.25h9.4Z" transform="translate(-206.02 -250.17)"/><path class="cls-15" d="M522.29,360.31H496.93V343.52h9.41c1.31,1.46,2.59,3,4,4.37C514.27,352,518.29,356.17,522.29,360.31Z" transform="translate(-206.02 -250.17)"/><path class="cls-16" d="M522.29,360.31c-4-4.14-8-8.27-12-12.42-1.36-1.42-2.64-2.91-4-4.37h17.95q6.19,6.38,12.37,12.76c1.24,1.3,2.39,2.68,3.58,4Z" transform="translate(-206.02 -250.17)"/><path class="cls-17" d="M569.15,357.25a29.29,29.29,0,0,0-2.55-3.89c-3.05-3.35-6.25-6.58-9.39-9.85,4.55-1.14,8-3.55,9.7-8.11,3.9,3.68,7.83,7.33,11.66,11.07.5.49.5,1.49.74,2.25C577.23,353.1,573.59,355.65,569.15,357.25Z" transform="translate(-206.02 -250.17)"/><path class="cls-18" d="M392.88,331.74h7.24v29.31h-7.24Z" transform="translate(-206.02 -250.17)"/><path class="cls-19" d="M530.28,288.9q6,6.18,12,12.37c1.36,1.41,2.65,2.88,4,4.32h-13c-1.21-1.33-2.4-2.68-3.65-4-3.75-3.9-7.53-7.78-11.3-11.67Z" transform="translate(-206.02 -250.17)"/><path class="cls-5" d="M334.44,331.72h7v29.33h-7C334.4,351.42,334.43,341.78,334.44,331.72Z" transform="translate(-206.02 -250.17)"/><path class="cls-20" d="M497.14,312.58c3.21,3,6.5,5.92,9.62,9,3.59,3.56,7,7.27,10.53,10.91h-13c-2.34-2.6-4.11-5.83-7.81-6.89Q496.84,319.1,497.14,312.58Z" transform="translate(-206.02 -250.17)"/><path class="cls-21" d="M466.41,257.1l7,1c-.48,5.88,2.24,11.71.49,17.85h-6.5Z" transform="translate(-206.02 -250.17)"/><path class="cls-22" d="M467.4,275.93h6.5c1.75-6.14-1-12-.49-17.85l6,1c.33,2.7.81,5.39,1,8.1.17,3.25,0,6.51,0,9.77H462.44C463.79,275.15,465.75,276.31,467.4,275.93Z" transform="translate(-206.02 -250.17)"/><path class="cls-23" d="M467.4,275.93c-1.65.38-3.61-.78-5,1l-1.07-.11q-.51-10.32-1-20.63l6.05.89Z" transform="translate(-206.02 -250.17)"/><path class="cls-24" d="M514.41,316.62l-2.23-4.72c-2.21-2.17-5.24-5.21-8.39-8.14a18.6,18.6,0,0,0-3.22-2l3.72-5.1,12.13,12.06C515.4,311.28,513.57,313.61,514.41,316.62Z" transform="translate(-206.02 -250.17)"/><path class="cls-25" d="M460.36,256.21q.51,10.32,1,20.63l-4-.06c-.31-6-.55-12.08-1-18.11-.07-.87-1.25-1.65-1.92-2.48l-2.11.16.14-.34a13.21,13.21,0,0,1,3.32-.66A31.42,31.42,0,0,1,460.36,256.21Z" transform="translate(-206.02 -250.17)"/><path class="cls-26" d="M485.38,260.06l4.24,1.43c.33,5.2.66,10.48,1,16.05-2.81.28-5.1,1.25-7.24-.6h0l3-.24c0-4.11.1-7.82,0-11.51A34,34,0,0,0,485.38,260.06Z" transform="translate(-206.02 -250.17)"/><path class="cls-27" d="M450.41,276.78q-.5-10.75-1-21.5l3.06.73-.14.34q.54,10.22,1.07,20.43Z" transform="translate(-206.02 -250.17)"/><path class="cls-28" d="M512.32,291.84l2.95-1a7.71,7.71,0,0,1,2.57,1.12c4.53,4.49,9,9.08,13.44,13.64h-4c-4.21-4.3-8.4-8.64-12.67-12.89-.49-.49-1.44-.52-2.17-.76Z" transform="translate(-206.02 -250.17)"/><path class="cls-29" d="M480.39,276.94c0-3.26.13-6.52,0-9.77-.14-2.71-.62-5.4-1-8.1l3,1v7.34l2.37.3c-.47,3.2-.92,6.22-1.37,9.24h-3Z" transform="translate(-206.02 -250.17)"/><path class="cls-30" d="M507.12,294.72l4.2-2.74a30.52,30.52,0,0,0,2.6,3.88c3.06,3.34,6.24,6.57,9.38,9.85l-1.76.14a20.4,20.4,0,0,1-3.68-2.12c-2.44-2.2-4.62-4.68-7.06-6.88A19.86,19.86,0,0,0,507.12,294.72Z" transform="translate(-206.02 -250.17)"/><path class="cls-31" d="M483.39,276.94c.45-3,.9-6,1.37-9.24l-2.37-.3v-7.34h3a34,34,0,0,1,1,5.13c.14,3.69,0,7.4,0,11.51Z" transform="translate(-206.02 -250.17)"/><path class="cls-32" d="M516.42,308.75l-12.13-12.06,2.06-1.76L518.3,307.5Z" transform="translate(-206.02 -250.17)"/><path class="cls-33" d="M453.4,276.78q-.54-10.21-1.07-20.43l2.11-.16q.51,10.29,1,20.58Z" transform="translate(-206.02 -250.17)"/><path class="cls-34" d="M455.44,276.77q-.49-10.29-1-20.58c.67.83,1.85,1.61,1.92,2.48.47,6,.71,12.07,1,18.11Z" transform="translate(-206.02 -250.17)"/><path class="cls-35" d="M518.3,307.5l-11.95-12.57a1.07,1.07,0,0,1,.77-.21,19.86,19.86,0,0,1,3.68,2.13c2.44,2.2,4.62,4.68,7.06,6.88a20.4,20.4,0,0,0,3.68,2.12Z" transform="translate(-206.02 -250.17)"/><path class="cls-36" d="M531.28,305.59c-4.47-4.56-8.91-9.15-13.44-13.64a7.71,7.71,0,0,0-2.57-1.12l3.05-.88c3.77,3.89,7.55,7.77,11.3,11.67,1.25,1.29,2.44,2.64,3.65,4Z" transform="translate(-206.02 -250.17)"/><path class="cls-37" d="M496.52,325.61c3.7,1.06,5.47,4.29,7.81,6.89h-5.72l-2.09-2.34Z" transform="translate(-206.02 -250.17)"/><path class="cls-38" d="M523.3,305.71c-3.14-3.28-6.32-6.51-9.38-9.85a30.52,30.52,0,0,1-2.6-3.88l1-.14.1.09c1.07,1.23,2.09,2.5,3.21,3.68,3.19,3.35,6.42,6.65,9.64,10Z" transform="translate(-206.02 -250.17)"/><path class="cls-1" d="M523.3,305.71l2-.13H566.9v10.76l-6.69.36h-29l-16.85-.09c-.84-3,1-5.34,2-7.87l1.88-1.25,3.24-1.65Z" transform="translate(-206.02 -250.17)"/><path class="cls-39" d="M298.6,343c1.13-2.81,2.86-3.57,4.95-3.67,5.89-.3,11.78-.57,18-.86l.22,4.53Z" transform="translate(-206.02 -250.17)"/><path class="cls-40" d="M527.26,305.58h-2c-3.22-3.32-6.45-6.62-9.64-10-1.12-1.18-2.14-2.45-3.21-3.68.73.24,1.68.27,2.17.76C518.86,296.94,523.05,301.28,527.26,305.58Z" transform="translate(-206.02 -250.17)"/></g></svg>